HIERARCHY
ROOT Hips
{
    OFFSET 0.000000 0.000000 0.000000
    CHANNELS 6 Xposition Yposition Zposition Zrotation Xrotation Yrotation
    JOINT Spine
    {
        OFFSET -0.000000 14.517291 0.000000
        CHANNELS 3 Zrotation Xrotation Yrotation
        JOINT Spine1
        {
            OFFSET -0.000000 37.558300 0.000000
            CHANNELS 3 Zrotation Xrotation Yrotation
            JOINT Neck
            {
                OFFSET -0.000000 37.404057 3.400369
                CHANNELS 3 Zrotation Xrotation Yrotation
                JOINT Head
                {
                    OFFSET -0.000000 24.785618 -3.540803
                    CHANNELS 3 Zrotation Xrotation Yrotation
                    End Site
                    {
                        OFFSET -0.000000 35.408028 0.000000
                    }
                }
            }
            JOINT LeftShoulder
            {
                OFFSET 6.992933 33.973492 -0.192664
                CHANNELS 3 Zrotation Xrotation Yrotation
                JOINT LeftArm
                {
                    OFFSET 21.527611 0.000000 0.000000
                    CHANNELS 3 Zrotation Xrotation Yrotation
                    JOINT LeftForeArm
                    {
                        OFFSET 56.353916 0.000000 0.000000
                        CHANNELS 3 Zrotation Xrotation Yrotation
                        JOINT LeftHand
                        {
                            OFFSET 47.774071 0.000000 0.000000
                            CHANNELS 3 Zrotation Xrotation Yrotation
                            End Site
                            {
                                OFFSET 26.556021 0.000000 0.000000
                            }
                        }
                    }
                }
            }
            JOINT RightShoulder
            {
                OFFSET -7.065357 33.973492 -0.192664
                CHANNELS 3 Zrotation Xrotation Yrotation
                JOINT RightArm
                {
                    OFFSET -21.527611 0.000000 0.000000
                    CHANNELS 3 Zrotation Xrotation Yrotation
                    JOINT RightForeArm
                    {
                        OFFSET -56.353916 0.000000 0.000000
                        CHANNELS 3 Zrotation Xrotation Yrotation
                        JOINT RightHand
                        {
                            OFFSET -47.774071 0.000000 0.000000
                            CHANNELS 3 Zrotation Xrotation Yrotation
                            End Site
                            {
                                OFFSET -26.556021 0.000000 0.000000
                            }
                        }
                    }
                }
            }
        }
    }
    JOINT LeftUpLeg
    {
        OFFSET 17.704014 0.000000 0.000000
        CHANNELS 3 Zrotation Xrotation Yrotation
        JOINT LeftLeg
        {
            OFFSET -0.000000 -81.181816 0.000000
            CHANNELS 3 Zrotation Xrotation Yrotation
            JOINT LeftFoot
            {
                OFFSET -0.000000 -62.821102 0.000000
                CHANNELS 3 Zrotation Xrotation Yrotation
                JOINT LeftToeBase
                {
                    OFFSET -0.000000 -11.507608 26.556021
                    CHANNELS 3 Zrotation Xrotation Yrotation
                    End Site
                    {
                        OFFSET -0.000000 0.000000 7.081605
                    }
                }
            }
        }
    }
    JOINT RightUpLeg
    {
        OFFSET -17.704014 0.000000 0.000000
        CHANNELS 3 Zrotation Xrotation Yrotation
        JOINT RightLeg
        {
            OFFSET -0.000000 -81.181816 0.000000
            CHANNELS 3 Zrotation Xrotation Yrotation
            JOINT RightFoot
            {
                OFFSET -0.000000 -62.821102 0.000000
                CHANNELS 3 Zrotation Xrotation Yrotation
                JOINT RightToeBase
                {
                    OFFSET -0.000000 -11.507608 26.556021
                    CHANNELS 3 Zrotation Xrotation Yrotation
                    End Site
                    {
                        OFFSET -0.000000 0.000000 7.081605
                    }
                }
            }
        }
    }
}
MOTION
Frames:    5
Frame Time:    0.008333
-7.367854    151.469727    -50.364250    2.267257    -7.539092    -35.519173    4.582203    1.915817    0.869405    -7.226437    3.446312    0.530831    15.562303    4.731161    16.056322    -11.311705    5.195834    13.984885    -2.114223    10.965500    -11.077982    -40.472244    1.634651    -27.005035    27.752483    -43.194599    -59.552486    -16.055510    -26.631626    -28.013294    -7.580369    5.722583    -2.489884    35.222584    11.648113    76.046272    5.925883    -7.818091    95.848694    7.034031    -13.194749    17.821123    19.735199    -23.532675    7.231279    -12.836009    18.061020    1.038868    -21.912731    16.362553    42.608326    0.000000    0.000000    0.000000    -6.171490    -13.692785    0.180493    12.743094    52.322338    -4.520455    -10.508703    -29.074526    -20.746418    0.000000    0.000000    0.000000    
-7.492290    151.607269    -50.278641    2.217523    -7.529129    -35.773178    4.493271    1.890182    1.012466    -7.128496    3.500798    0.578065    15.676861    4.634091    16.082695    -11.374573    5.349473    13.995539    -2.012019    10.950712    -11.170878    -40.657856    1.663898    -27.109583    27.808107    -43.206524    -59.560349    -16.056343    -26.618677    -27.970995    -7.545310    5.700730    -2.704025    35.106628    11.759220    76.188011    6.050315    -7.862196    95.865730    7.065118    -13.371998    17.791195    19.821398    -23.513390    7.202927    -12.731224    17.978626    0.925943    -22.273293    16.555212    42.569920    0.000000    0.000000    0.000000    -6.102706    -13.546001    0.233889    12.597628    52.060009    -4.331430    -10.491142    -28.952719    -20.630352    0.000000    0.000000    0.000000    
-7.615232    151.735504    -50.191967    2.155837    -7.530044    -36.010063    4.564420    1.863981    0.918370    -7.238322    3.481362    0.548896    15.664517    4.808858    16.193796    -11.343176    5.288699    14.135122    -2.097384    10.914071    -11.035357    -40.573780    1.845818    -27.038979    28.087320    -43.332829    -59.270672    -16.212830    -26.655643    -28.084482    -7.542740    5.732942    -2.461055    35.151459    11.784602    76.259163    6.166164    -7.779157    95.761909    7.089578    -13.401298    17.770473    19.924118    -23.479038    7.156806    -12.661300    17.876011    0.786267    -22.636229    16.740997    42.629860    0.000000    0.000000    0.000000    -6.038694    -13.382255    0.269974    12.465395    51.806740    -4.144770    -10.506994    -28.832239    -20.508669    0.000000    0.000000    0.000000    
-7.738146    151.871552    -50.062870    2.120820    -7.540122    -36.268608    4.513177    1.817515    0.943208    -7.197017    3.491424    0.555793    15.693075    4.895726    16.272390    -11.377986    5.302804    14.224938    -2.130647    10.909921    -11.010546    -40.624916    1.872556    -27.043716    28.148888    -43.346455    -59.214760    -16.164673    -26.669146    -28.064081    -7.563168    5.746160    -2.423901    35.111492    11.854592    76.358246    6.289914    -7.762892    95.712067    7.107235    -13.510187    17.775078    19.986629    -23.424273    7.186696    -12.526904    17.787338    0.720226    -23.007696    16.946276    42.554852    0.000000    0.000000    0.000000    -6.020292    -13.206288    0.315334    12.347236    51.533882    -3.974490    -10.482185    -28.753265    -20.363543    0.000000    0.000000    0.000000    
-7.842448    151.992966    -49.927597    2.066540    -7.570035    -36.523674    4.504349    1.818897    0.967414    -7.210454    3.479518    0.563317    15.716394    4.971292    16.346312    -11.388844    5.340228    14.313449    -2.144343    10.915926    -11.009175    -40.651131    1.818283    -27.063675    28.220642    -43.191628    -59.103241    -16.058048    -26.499783    -28.047596    -7.581142    5.755858    -2.365772    35.111244    11.905955    76.424355    6.385365    -7.716314    95.663689    7.107985    -13.563771    17.744057    20.059898    -23.330168    7.104583    -12.448401    17.645166    0.608432    -23.420237    17.138990    42.692585    0.000000    0.000000    0.000000    -6.015254    -13.013372    0.353200    12.271352    51.279541    -3.841413    -10.503269    -28.663963    -20.227093    0.000000    0.000000    0.000000    
